<svg width="24" height="24" viewBox="0 0 24 24" fill="none" xmlns="http://www.w3.org/2000/svg">
<path d="M20.25 19V5C20.25 4.58579 20.5858 4.25 21 4.25C21.4142 4.25 21.75 4.58579 21.75 5V19C21.75 19.4142 21.4142 19.75 21 19.75C20.5858 19.75 20.25 19.4142 20.25 19ZM10.4697 5.46973C10.7626 5.17683 11.2374 5.17683 11.5303 5.46973L17.5303 11.4697C17.8232 11.7626 17.8232 12.2374 17.5303 12.5303L11.5303 18.5303C11.2374 18.8232 10.7626 18.8232 10.4697 18.5303C10.1768 18.2374 10.1768 17.7626 10.4697 17.4697L15.1895 12.75H3C2.58579 12.75 2.25 12.4142 2.25 12C2.25 11.5858 2.58579 11.25 3 11.25H15.1895L10.4697 6.53027C10.1768 6.23738 10.1768 5.76262 10.4697 5.46973Z" fill="currentColor"/>
</svg>
