<svg width="24" height="24" viewBox="0 0 24 24" fill="none" xmlns="http://www.w3.org/2000/svg">
<path d="M2.25 19V5C2.25 4.58579 2.58579 4.25 3 4.25C3.41421 4.25 3.75 4.58579 3.75 5V19C3.75 19.4142 3.41421 19.75 3 19.75C2.58579 19.75 2.25 19.4142 2.25 19ZM12.4697 5.46973C12.7626 5.17683 13.2374 5.17683 13.5303 5.46973C13.8232 5.76262 13.8232 6.23738 13.5303 6.53027L8.81055 11.25H21C21.4142 11.25 21.75 11.5858 21.75 12C21.75 12.4142 21.4142 12.75 21 12.75H8.81055L13.5303 17.4697C13.8232 17.7626 13.8232 18.2374 13.5303 18.5303C13.2374 18.8232 12.7626 18.8232 12.4697 18.5303L6.46973 12.5303C6.17683 12.2374 6.17683 11.7626 6.46973 11.4697L12.4697 5.46973Z" fill="currentColor"/>
</svg>
