<svg width="24" height="24" viewBox="0 0 24 24" fill="none" xmlns="http://www.w3.org/2000/svg">
<path d="M18.25 22V17.8105L16.5303 19.5303C16.2374 19.8232 15.7626 19.8232 15.4697 19.5303C15.1768 19.2374 15.1768 18.7626 15.4697 18.4697L18.4697 15.4697L18.5269 15.418C18.8214 15.1779 19.2558 15.1952 19.5303 15.4697L22.5303 18.4697C22.8232 18.7626 22.8232 19.2374 22.5303 19.5303C22.2374 19.8232 21.7626 19.8232 21.4697 19.5303L19.75 17.8105V22C19.75 22.4142 19.4142 22.75 19 22.75C18.5858 22.75 18.25 22.4142 18.25 22ZM13.25 12C13.25 11.3096 12.6904 10.75 12 10.75C11.3096 10.75 10.75 11.3096 10.75 12C10.75 12.6904 11.3096 13.25 12 13.25C12.6904 13.25 13.25 12.6904 13.25 12ZM21.25 13V8C21.25 7.66848 21.1182 7.35063 20.8838 7.11621C20.6494 6.88179 20.3315 6.75 20 6.75H4C3.66848 6.75 3.35063 6.88179 3.11621 7.11621C2.88179 7.35063 2.75 7.66848 2.75 8V16C2.75 16.3315 2.88179 16.6494 3.11621 16.8838C3.35063 17.1182 3.66848 17.25 4 17.25H12C12.4142 17.25 12.75 17.5858 12.75 18C12.75 18.4142 12.4142 18.75 12 18.75H4C3.27065 18.75 2.57139 18.4601 2.05566 17.9443C1.53994 17.4286 1.25 16.7293 1.25 16V8C1.25 7.27065 1.53994 6.57139 2.05566 6.05566C2.57139 5.53994 3.27065 5.25 4 5.25H20C20.7293 5.25 21.4286 5.53994 21.9443 6.05566C22.4601 6.57139 22.75 7.27065 22.75 8V13C22.75 13.4142 22.4142 13.75 22 13.75C21.5858 13.75 21.25 13.4142 21.25 13ZM6.00977 11.25C6.42398 11.25 6.75977 11.5858 6.75977 12C6.75977 12.4142 6.42398 12.75 6.00977 12.75H6C5.58579 12.75 5.25 12.4142 5.25 12C5.25 11.5858 5.58579 11.25 6 11.25H6.00977ZM18.0098 11.25C18.424 11.25 18.7598 11.5858 18.7598 12C18.7598 12.4142 18.424 12.75 18.0098 12.75H18C17.5858 12.75 17.25 12.4142 17.25 12C17.25 11.5858 17.5858 11.25 18 11.25H18.0098ZM14.75 12C14.75 13.5188 13.5188 14.75 12 14.75C10.4812 14.75 9.25 13.5188 9.25 12C9.25 10.4812 10.4812 9.25 12 9.25C13.5188 9.25 14.75 10.4812 14.75 12Z" fill="#5F6368"/>
</svg>
