<svg width="24" height="24" viewBox="0 0 24 24" fill="none" xmlns="http://www.w3.org/2000/svg">
<path d="M13.25 18C13.25 17.6685 13.1182 17.3506 12.8838 17.1162C12.6787 16.9111 12.4097 16.7848 12.1235 16.7563L12 16.75C11.6685 16.75 11.3506 16.8818 11.1162 17.1162C10.8818 17.3506 10.75 17.6685 10.75 18V20.25H13.25V18ZM14 11.25C14.4142 11.25 14.75 11.5858 14.75 12C14.75 12.4142 14.4142 12.75 14 12.75H10C9.58579 12.75 9.25 12.4142 9.25 12C9.25 11.5858 9.58579 11.25 10 11.25H14ZM14 7.25C14.4142 7.25 14.75 7.58579 14.75 8C14.75 8.41421 14.4142 8.75 14 8.75H10C9.58579 8.75 9.25 8.41421 9.25 8C9.25 7.58579 9.58579 7.25 10 7.25H14ZM21.25 9C21.25 8.66848 21.1182 8.35063 20.8838 8.11621C20.6787 7.9111 20.4097 7.78476 20.1235 7.75635L20 7.75H18.75V20.25H20C20.3315 20.25 20.6494 20.1182 20.8838 19.8838C21.1182 19.6494 21.25 19.3315 21.25 19V9ZM2.75 19C2.75 19.3315 2.88179 19.6494 3.11621 19.8838C3.35063 20.1182 3.66848 20.25 4 20.25H5.25V10.75H4C3.66848 10.75 3.35063 10.8818 3.11621 11.1162C2.88179 11.3506 2.75 11.6685 2.75 12V19ZM17.25 5C17.25 4.66848 17.1182 4.35063 16.8838 4.11621C16.6494 3.88179 16.3315 3.75 16 3.75H8C7.66848 3.75 7.35063 3.88179 7.11621 4.11621C6.88179 4.35063 6.75 4.66848 6.75 5V20.25H9.25V18C9.25 17.2707 9.53994 16.5714 10.0557 16.0557C10.5714 15.5399 11.2707 15.25 12 15.25L12.1362 15.2534C12.816 15.2871 13.4608 15.5721 13.9443 16.0557C14.4601 16.5714 14.75 17.2707 14.75 18V20.25H17.25V5ZM18.75 6.25H20C20.7293 6.25 21.4286 6.53994 21.9443 7.05566C22.4601 7.57139 22.75 8.27065 22.75 9V19C22.75 19.7293 22.4601 20.4286 21.9443 20.9443C21.4286 21.4601 20.7293 21.75 20 21.75H4C3.27065 21.75 2.57139 21.4601 2.05566 20.9443C1.53994 20.4286 1.25 19.7293 1.25 19V12C1.25 11.2707 1.53994 10.5714 2.05566 10.0557C2.57139 9.53994 3.27065 9.25 4 9.25H5.25V5C5.25 4.27065 5.53994 3.57139 6.05566 3.05566C6.57139 2.53994 7.27065 2.25 8 2.25H16C16.7293 2.25 17.4286 2.53994 17.9443 3.05566C18.4601 3.57139 18.75 4.27065 18.75 5V6.25Z" fill="#5F6368"/>
</svg>
