<svg width="24" height="24" viewBox="0 0 24 24" fill="none" xmlns="http://www.w3.org/2000/svg">
<path d="M21.2499 14.4998C21.2499 13.5053 20.855 12.5512 20.1517 11.848C19.4485 11.1447 18.4944 10.7498 17.4999 10.7498H15.7098C15.3782 10.7497 15.0858 10.532 14.9911 10.2142C14.6599 9.10343 14.0265 8.10668 13.1615 7.33526C12.2964 6.56385 11.2339 6.04832 10.0926 5.846C8.9514 5.64371 7.77654 5.76271 6.69907 6.18975C5.62158 6.61681 4.68384 7.33477 3.99106 8.26397C3.29828 9.19319 2.87743 10.2969 2.77573 11.4515C2.67405 12.606 2.89571 13.7661 3.41538 14.8021C3.93505 15.838 4.73237 16.7093 5.7186 17.3182C6.70487 17.927 7.84129 18.2495 9.00034 18.2498H17.4999C18.4944 18.2498 19.4485 17.8549 20.1517 17.1517C20.855 16.4484 21.2499 15.4944 21.2499 14.4998ZM22.7499 14.4998C22.7499 15.8922 22.1968 17.2276 21.2123 18.2122C20.2277 19.1967 18.8922 19.7498 17.4999 19.7498H8.99985C7.56269 19.7494 6.15393 19.3494 4.931 18.5945C3.7081 17.8396 2.71897 16.7595 2.07456 15.4749C1.43015 14.1903 1.15549 12.7513 1.28159 11.3196C1.40772 9.88805 1.92944 8.51966 2.78843 7.36749C3.64748 6.21526 4.81023 5.32478 6.14634 4.79522C7.48238 4.26569 8.93925 4.11813 10.3543 4.36895C11.7695 4.61982 13.0873 5.25907 14.16 6.21563C15.0915 7.04635 15.806 8.08807 16.2469 9.24981H17.4999C18.8922 9.24981 20.2277 9.8029 21.2123 10.7874C22.1968 11.772 22.7499 13.1074 22.7499 14.4998Z" fill="#5F6368"/>
</svg>
