<svg width="24" height="24" viewBox="0 0 24 24" fill="none" xmlns="http://www.w3.org/2000/svg">
<path d="M2.25 20V9C2.25 8.27066 2.53994 7.57139 3.05566 7.05566C3.57139 6.53994 4.27066 6.25 5 6.25C5.41421 6.25 5.75 6.58579 5.75 7C5.75 7.41421 5.41421 7.75 5 7.75C4.66848 7.75 4.35063 7.88179 4.11621 8.11621C3.88179 8.35063 3.75 8.66848 3.75 9V20C3.75 20.3315 3.88179 20.6494 4.11621 20.8838C4.35063 21.1182 4.66848 21.25 5 21.25H13L13.082 21.2471C13.2729 21.2345 13.4587 21.1785 13.625 21.0825C13.815 20.9728 13.9728 20.815 14.0825 20.625C14.2896 20.2663 14.7482 20.1435 15.1069 20.3506C15.4657 20.5577 15.5885 21.0163 15.3813 21.375C15.14 21.793 14.793 22.14 14.375 22.3813C13.957 22.6227 13.4827 22.75 13 22.75H5C4.27065 22.75 3.57139 22.4601 3.05566 21.9443C2.53994 21.4286 2.25 20.7293 2.25 20ZM8.25 15V4C8.25 3.27066 8.53994 2.57139 9.05566 2.05566C9.57139 1.53994 10.2707 1.25 11 1.25H15V1.25049C15.4153 1.24971 15.8267 1.33045 16.2104 1.48926C16.5944 1.64814 16.9429 1.88158 17.2363 2.17578L20.8232 5.7627C21.1179 6.05626 21.3517 6.40524 21.5107 6.78955C21.6695 7.17329 21.7508 7.58471 21.75 8V15C21.75 15.7293 21.4601 16.4286 20.9443 16.9443C20.4286 17.4601 19.7293 17.75 19 17.75H11C10.2707 17.75 9.57139 17.4601 9.05566 16.9443C8.53994 16.4286 8.25 15.7293 8.25 15ZM15.75 7C15.75 7.0663 15.7764 7.12987 15.8232 7.17676C15.8701 7.22364 15.9337 7.25 16 7.25H20.0723C19.993 7.09321 19.8895 6.94957 19.7646 6.8252L16.1748 3.23535C16.0504 3.11052 15.9068 3.00698 15.75 2.92773V7ZM9.75 15C9.75 15.3315 9.88179 15.6494 10.1162 15.8838C10.3506 16.1182 10.6685 16.25 11 16.25H19C19.3315 16.25 19.6494 16.1182 19.8838 15.8838C20.1182 15.6494 20.25 15.3315 20.25 15V8.75H16C15.5359 8.75 15.0909 8.56549 14.7627 8.2373C14.4345 7.90912 14.25 7.46413 14.25 7V2.75H11C10.6685 2.75 10.3506 2.88179 10.1162 3.11621C9.88179 3.35063 9.75 3.66848 9.75 4V15Z" fill="#5F6368"/>
</svg>
