<svg width="24" height="24" viewBox="0 0 24 24" fill="none" xmlns="http://www.w3.org/2000/svg">
<path d="M3.25 20V4C3.25 3.27066 3.53994 2.57139 4.05566 2.05566C4.57139 1.53994 5.27066 1.25 6 1.25H14V1.25049C14.415 1.24998 14.8261 1.33091 15.2095 1.48975C15.5929 1.64862 15.9413 1.88188 16.2344 2.17578L19.8208 5.76221L19.9287 5.87451C20.1734 6.14303 20.3697 6.45235 20.5093 6.78857C20.6686 7.17252 20.7505 7.58431 20.75 8V20C20.75 20.7293 20.4601 21.4286 19.9443 21.9443C19.4286 22.4601 18.7293 22.75 18 22.75H6C5.27065 22.75 4.57139 22.4601 4.05566 21.9443C3.53994 21.4286 3.25 20.7293 3.25 20ZM11.25 12C11.25 11.5858 11.5858 11.25 12 11.25C12.4142 11.25 12.75 11.5858 12.75 12V16.1895L14.4697 14.4697C14.7626 14.1768 15.2374 14.1768 15.5303 14.4697C15.8232 14.7626 15.8232 15.2374 15.5303 15.5303L12.5303 18.5303C12.2374 18.8232 11.7626 18.8232 11.4697 18.5303L8.46973 15.5303C8.17683 15.2374 8.17683 14.7626 8.46973 14.4697C8.76262 14.1768 9.23738 14.1768 9.53027 14.4697L11.25 16.1895V12ZM14.75 7C14.75 7.0663 14.7764 7.12987 14.8232 7.17676C14.8701 7.22364 14.9337 7.25 15 7.25H19.0713C18.9919 7.0934 18.8881 6.94985 18.7632 6.82568L15.1729 3.23535C15.049 3.11105 14.906 3.00783 14.75 2.92871V7ZM4.75 20C4.75 20.3315 4.88179 20.6494 5.11621 20.8838C5.35063 21.1182 5.66848 21.25 6 21.25H18C18.3315 21.25 18.6494 21.1182 18.8838 20.8838C19.1182 20.6494 19.25 20.3315 19.25 20V8.75H15C14.5359 8.75 14.0909 8.56549 13.7627 8.2373C13.4345 7.90912 13.25 7.46413 13.25 7V2.75H6C5.66848 2.75 5.35063 2.88179 5.11621 3.11621C4.88179 3.35063 4.75 3.66848 4.75 4V20Z" fill="#5F6368"/>
</svg>
