<svg width="24" height="24" viewBox="0 0 24 24" fill="none" xmlns="http://www.w3.org/2000/svg">
<path d="M1.25 18V5C1.25 4.27065 1.53994 3.57139 2.05566 3.05566C2.57139 2.53994 3.27065 2.25 4 2.25H7.93018L8.10059 2.25537C8.49679 2.28004 8.88374 2.39014 9.23438 2.5791C9.63513 2.79508 9.97617 3.10711 10.2266 3.4873H10.2261L11.0317 4.68018L11.0366 4.6875C11.1516 4.86205 11.3082 5.00526 11.4927 5.10352C11.6772 5.20179 11.8837 5.25205 12.0928 5.25H20C20.7293 5.25 21.4286 5.53994 21.9443 6.05566C22.4601 6.57139 22.75 7.27065 22.75 8V18C22.75 18.7293 22.4601 19.4286 21.9443 19.9443C21.4286 20.4601 20.7293 20.75 20 20.75H4C3.27065 20.75 2.57139 20.4601 2.05566 19.9443C1.53994 19.4286 1.25 18.7293 1.25 18ZM12 10.25C13.2587 10.25 14.3195 11.0958 14.646 12.25H17C17.4142 12.25 17.75 12.5858 17.75 13C17.75 13.4142 17.4142 13.75 17 13.75H14.646C14.3195 14.9042 13.2587 15.75 12 15.75C10.7413 15.75 9.68051 14.9042 9.354 13.75H7C6.58579 13.75 6.25 13.4142 6.25 13C6.25 12.5858 6.58579 12.25 7 12.25H9.354C9.68051 11.0958 10.7413 10.25 12 10.25ZM12 11.75C11.3096 11.75 10.75 12.3096 10.75 13C10.75 13.6904 11.3096 14.25 12 14.25C12.6904 14.25 13.25 13.6904 13.25 13C13.25 12.3096 12.6904 11.75 12 11.75ZM2.75 18C2.75 18.3315 2.88179 18.6494 3.11621 18.8838C3.35063 19.1182 3.66848 19.25 4 19.25H20C20.3315 19.25 20.6494 19.1182 20.8838 18.8838C21.1182 18.6494 21.25 18.3315 21.25 18V8C21.25 7.66848 21.1182 7.35063 20.8838 7.11621C20.6494 6.88179 20.3315 6.75 20 6.75H12.1001V6.74951C11.6427 6.75279 11.1914 6.6423 10.7876 6.42725C10.3818 6.21109 10.0366 5.89669 9.78369 5.5127V5.51221L8.97852 4.31982C8.97692 4.31747 8.9752 4.31488 8.97363 4.3125C8.85981 4.13967 8.70463 3.99759 8.52246 3.89941C8.34036 3.80133 8.13653 3.75003 7.92969 3.75H4C3.66848 3.75 3.35063 3.88179 3.11621 4.11621C2.88179 4.35063 2.75 4.66848 2.75 5V18Z" fill="#5F6368"/>
</svg>
