<svg width="24" height="24" viewBox="0 0 24 24" fill="none" xmlns="http://www.w3.org/2000/svg">
<path d="M17.0002 2.25C17.427 2.25002 17.8479 2.34965 18.2297 2.54053C18.6115 2.73145 18.9437 3.00856 19.1999 3.3501L22.1999 7.3501C22.5537 7.82195 22.7465 8.39512 22.7497 8.98486C22.7497 8.98617 22.7497 8.98747 22.7497 8.98877C22.7497 8.99251 22.7502 8.99625 22.7502 9C22.7502 9.00604 22.7493 9.01206 22.7492 9.01807C22.7453 9.59613 22.56 10.1588 22.2179 10.6255L22.2175 10.625L14.2297 21.6094L14.2292 21.6089C13.9747 21.9615 13.6406 22.2489 13.2536 22.4473C12.8659 22.6459 12.4367 22.7493 12.0011 22.7495L12.0002 22.75L11.9997 22.7495V22.75C11.5635 22.75 11.1334 22.6462 10.7453 22.4473C10.3584 22.249 10.0241 21.9618 9.7697 21.6094L1.77947 10.623L1.77995 10.6226C1.43254 10.1472 1.24624 9.57322 1.24968 8.98438C1.25315 8.39463 1.44599 7.82131 1.79997 7.34961H1.80046L4.79802 3.35303C5.05387 3.01091 5.38584 2.73297 5.76775 2.5415C6.15006 2.34987 6.57203 2.25009 6.99968 2.25H17.0002ZM10.7072 20.3481L7.44646 9.75H2.99919L10.7072 20.3481ZM13.2936 20.3447L20.9997 9.75H16.5539L13.2936 20.3447ZM12.0002 19.4497L14.9845 9.75H9.01579L12.0002 19.4497ZM16.5002 8.25H21.0002L18.0002 4.25C17.8838 4.09479 17.7328 3.96862 17.5593 3.88184C17.3857 3.79507 17.1942 3.75002 17.0002 3.75H14.6252L16.5002 8.25ZM9.12517 8.25H14.8752L13.0002 3.75H11.0002L9.12517 8.25ZM6.92741 3.75195C6.75809 3.76184 6.5922 3.8061 6.44011 3.88232C6.2663 3.96945 6.11507 4.09619 5.9987 4.25195L5.99822 4.25293L3.00017 8.25H7.50017L9.37517 3.75H7.00017L6.92741 3.75195Z" fill="#5F6368"/>
</svg>
