<svg width="24" height="24" viewBox="0 0 24 24" fill="none" xmlns="http://www.w3.org/2000/svg">
<path d="M16.2437 17.7046C16.2192 17.4594 16.123 17.2267 15.9668 17.0361L15.8838 16.9443L12 13.0605L8.11621 16.9443C7.88178 17.1787 7.75008 17.4966 7.75 17.8281V21.25H16.25V17.8281L16.2437 17.7046ZM16.25 2.75H7.75V6.17188L7.75635 6.29541C7.78483 6.58152 7.91109 6.85061 8.11621 7.05566L12 10.9395L15.8838 7.05566L15.9668 6.96387C16.149 6.7415 16.2499 6.4619 16.25 6.17188V2.75ZM17.75 6.17236C17.7498 6.90151 17.46 7.60067 16.9443 8.11621L13.0605 12L16.9443 15.8838C17.46 16.3993 17.7498 17.0985 17.75 17.8276V21.25H19C19.4142 21.25 19.75 21.5858 19.75 22C19.75 22.4142 19.4142 22.75 19 22.75H5C4.58579 22.75 4.25 22.4142 4.25 22C4.25 21.5858 4.58579 21.25 5 21.25H6.25V17.8276C6.25021 17.0985 6.54004 16.3993 7.05566 15.8838L10.9395 12L7.05566 8.11621C6.54004 7.60067 6.25021 6.90151 6.25 6.17236V2.75H5C4.58579 2.75 4.25 2.41421 4.25 2C4.25 1.58579 4.58579 1.25 5 1.25H19C19.4142 1.25 19.75 1.58579 19.75 2C19.75 2.41421 19.4142 2.75 19 2.75H17.75V6.17236Z" fill="#5F6368"/>
</svg>
