<svg width="24" height="24" viewBox="0 0 24 24" fill="none" xmlns="http://www.w3.org/2000/svg">
<path d="M21.25 12C21.25 11.138 20.9078 10.3112 20.2983 9.70166C19.7269 9.13025 18.9644 8.79375 18.1611 8.75391L18 8.75C16.9684 8.75 16.0633 9.15764 15.1777 9.84326C14.4258 10.4254 13.726 11.1781 12.9995 12C13.726 12.8219 14.4258 13.5746 15.1777 14.1567C16.0633 14.8424 16.9684 15.25 18 15.25L18.1611 15.2461C18.9644 15.2063 19.7269 14.8697 20.2983 14.2983C20.9078 13.6888 21.25 12.862 21.25 12ZM2.75391 12.1611C2.79375 12.9644 3.13025 13.7269 3.70166 14.2983C4.31115 14.9078 5.13805 15.25 6 15.25C7.03163 15.25 7.93668 14.8424 8.82227 14.1567C9.57413 13.5746 10.2736 12.8218 11 12C10.2736 11.1782 9.57413 10.4254 8.82227 9.84326C7.93668 9.15764 7.03163 8.75 6 8.75C5.13805 8.75 4.31115 9.09217 3.70166 9.70166C3.09217 10.3112 2.75 11.138 2.75 12L2.75391 12.1611ZM22.75 12C22.75 13.2598 22.2497 14.4681 21.3589 15.3589C20.4681 16.2497 19.2598 16.75 18 16.75C16.5317 16.75 15.3116 16.1576 14.2598 15.3433C13.4448 14.7123 12.7009 13.9221 12 13.1338C11.2991 13.9221 10.5552 14.7123 9.74023 15.3433C8.68837 16.1576 7.46828 16.75 6 16.75C4.74022 16.75 3.53191 16.2497 2.64111 15.3589C1.80595 14.5237 1.31406 13.4094 1.25586 12.2354L1.25 12C1.25 10.7402 1.75032 9.53191 2.64111 8.64111C3.53191 7.75032 4.74022 7.25 6 7.25C7.46828 7.25 8.68837 7.84243 9.74023 8.65674C10.5551 9.28758 11.2992 10.0775 12 10.8657C12.7008 10.0775 13.4449 9.28758 14.2598 8.65674C15.3116 7.84243 16.5317 7.25 18 7.25C19.2598 7.25 20.4681 7.75032 21.3589 8.64111C22.2497 9.53191 22.75 10.7402 22.75 12Z" fill="#5F6368"/>
</svg>
