<svg width="24" height="24" viewBox="0 0 24 24" fill="none" xmlns="http://www.w3.org/2000/svg">
<path d="M22 19.25C22.4142 19.25 22.75 19.5858 22.75 20C22.75 20.4142 22.4142 20.75 22 20.75H2C1.58579 20.75 1.25 20.4142 1.25 20C1.25 19.5858 1.58579 19.25 2 19.25H22ZM20.25 6C20.25 5.30964 19.6904 4.75 19 4.75H5C4.30964 4.75 3.75 5.30964 3.75 6V14C3.75 14.6904 4.30964 15.25 5 15.25H19C19.6904 15.25 20.25 14.6904 20.25 14V6ZM14.4697 7.46973C14.7626 7.17683 15.2374 7.17683 15.5303 7.46973C15.8232 7.76262 15.8232 8.23738 15.5303 8.53027L11.5303 12.5303C11.2374 12.8232 10.7626 12.8232 10.4697 12.5303L8.46973 10.5303C8.17683 10.2374 8.17683 9.76262 8.46973 9.46973C8.76262 9.17683 9.23738 9.17683 9.53027 9.46973L11 10.9395L14.4697 7.46973ZM21.75 14C21.75 15.5188 20.5188 16.75 19 16.75H5C3.48122 16.75 2.25 15.5188 2.25 14V6C2.25 4.48122 3.48122 3.25 5 3.25H19C20.5188 3.25 21.75 4.48122 21.75 6V14Z" fill="#5F6368"/>
</svg>
