<svg width="24" height="24" viewBox="0 0 24 24" fill="none" xmlns="http://www.w3.org/2000/svg">
<path d="M8.46973 14.4697C8.76262 14.1768 9.23738 14.1768 9.53027 14.4697C9.82317 14.7626 9.82317 15.2374 9.53027 15.5303L5.53027 19.5303C5.23738 19.8232 4.76262 19.8232 4.46973 19.5303L2.46973 17.5303C2.17683 17.2374 2.17683 16.7626 2.46973 16.4697C2.76262 16.1768 3.23738 16.1768 3.53027 16.4697L5 17.9395L8.46973 14.4697ZM21 18.25C21.4142 18.25 21.75 18.5858 21.75 19C21.75 19.4142 21.4142 19.75 21 19.75H13C12.5858 19.75 12.25 19.4142 12.25 19C12.25 18.5858 12.5858 18.25 13 18.25H21ZM21 11.25C21.4142 11.25 21.75 11.5858 21.75 12C21.75 12.4142 21.4142 12.75 21 12.75H13C12.5858 12.75 12.25 12.4142 12.25 12C12.25 11.5858 12.5858 11.25 13 11.25H21ZM8.25 5C8.25 4.86193 8.13807 4.75 8 4.75H4C3.86193 4.75 3.75 4.86193 3.75 5V9C3.75 9.13807 3.86193 9.25 4 9.25H8C8.13807 9.25 8.25 9.13807 8.25 9V5ZM21 4.25C21.4142 4.25 21.75 4.58579 21.75 5C21.75 5.41421 21.4142 5.75 21 5.75H13C12.5858 5.75 12.25 5.41421 12.25 5C12.25 4.58579 12.5858 4.25 13 4.25H21ZM9.75 9C9.75 9.9665 8.9665 10.75 8 10.75H4C3.0335 10.75 2.25 9.9665 2.25 9V5C2.25 4.0335 3.0335 3.25 4 3.25H8C8.9665 3.25 9.75 4.0335 9.75 5V9Z" fill="#5F6368"/>
</svg>
