<svg width="24" height="24" viewBox="0 0 24 24" fill="none" xmlns="http://www.w3.org/2000/svg">
<path d="M1.25 14.9997V4.99972C1.25005 4.27045 1.53999 3.57106 2.05566 3.05539C2.57138 2.53972 3.2707 2.24972 4 2.24972H11C11.4141 2.24972 11.7499 2.5856 11.75 2.99972C11.75 3.41394 11.4142 3.74972 11 3.74972H4C3.66853 3.74972 3.35062 3.88157 3.11621 4.11593C2.88184 4.35031 2.75005 4.66827 2.75 4.99972V14.9997C2.75 15.3312 2.88179 15.6496 3.11621 15.884C3.35062 16.1183 3.66855 16.2497 4 16.2497H20C20.3315 16.2497 20.6494 16.1183 20.8838 15.884C21.1182 15.6496 21.25 15.3312 21.25 14.9997V12.9997C21.2501 12.5856 21.5859 12.2497 22 12.2497C22.4141 12.2497 22.7499 12.5856 22.75 12.9997V14.9997C22.75 15.7291 22.4601 16.4288 21.9443 16.9445C21.4286 17.4602 20.7293 17.7497 20 17.7497H12.75V20.2497H16C16.4141 20.2497 16.7499 20.5856 16.75 20.9997C16.75 21.4139 16.4142 21.7497 16 21.7497H8C7.58579 21.7497 7.25 21.4139 7.25 20.9997C7.25011 20.5856 7.58585 20.2497 8 20.2497H11.25V17.7497H4C3.27072 17.7497 2.57138 17.4602 2.05566 16.9445C1.53994 16.4288 1.25 15.7291 1.25 14.9997ZM20.25 5.99972C20.2499 4.75717 19.2426 3.74972 18 3.74972C16.7574 3.74972 15.7501 4.75717 15.75 5.99972C15.75 7.24236 16.7574 8.24972 18 8.24972C19.2426 8.24972 20.25 7.24236 20.25 5.99972ZM21.75 5.99972C21.75 6.24349 21.7256 6.48181 21.6812 6.71261L21.9834 6.8381C22.3659 6.99677 22.5473 7.4355 22.3887 7.81808C22.2301 8.2007 21.7913 8.38244 21.4087 8.22384L21.1074 8.09884C20.8386 8.4961 20.4959 8.83933 20.0986 9.10812L20.2231 9.40939C20.3814 9.79218 20.1992 10.2306 19.8164 10.3889C19.4337 10.5471 18.9952 10.3653 18.8369 9.98263L18.7124 9.68087C18.4817 9.72527 18.2437 9.74972 18 9.74972C17.7558 9.74972 17.5173 9.72544 17.2861 9.68087L17.1616 9.98214C17.0029 10.3647 16.5642 10.5462 16.1816 10.3874C15.7991 10.2287 15.6176 9.79002 15.7764 9.40744L15.9004 9.10763C15.5033 8.83881 15.1608 8.49556 14.8921 8.09835L14.5918 8.22287C14.2091 8.38127 13.7702 8.19935 13.6118 7.81662C13.4536 7.43398 13.6355 6.99556 14.0181 6.83712L14.3184 6.71261C14.2739 6.48183 14.25 6.24346 14.25 5.99972C14.25 5.75575 14.2739 5.51733 14.3184 5.28634L14.0176 5.16183C13.635 5.00308 13.4536 4.56395 13.6123 4.18136C13.7711 3.79891 14.2098 3.61748 14.5923 3.77609L14.8921 3.9006C15.1609 3.50348 15.5037 3.16055 15.9009 2.89181L15.7764 2.59103C15.6178 2.20843 15.7991 1.76971 16.1816 1.61105C16.5643 1.45245 17.003 1.63418 17.1616 2.01681L17.2866 2.31808C17.5176 2.27359 17.756 2.24972 18 2.24972C18.2438 2.24972 18.4821 2.27365 18.7129 2.31808L18.8384 2.01681C18.997 1.63418 19.4357 1.45245 19.8184 1.61105C20.2009 1.76971 20.3822 2.20843 20.2236 2.59103L20.0986 2.89181C20.4958 3.16053 20.8386 3.50347 21.1074 3.9006L21.4087 3.77609C21.7913 3.61748 22.2301 3.79921 22.3887 4.18185C22.5472 4.56443 22.3659 5.00317 21.9834 5.16183L21.6812 5.28683C21.7256 5.5177 21.75 5.75589 21.75 5.99972Z" fill="#5F6368"/>
</svg>
