<svg width="24" height="24" viewBox="0 0 24 24" fill="none" xmlns="http://www.w3.org/2000/svg">
<path d="M11.4713 2.26514C12.0214 2.23526 12.4347 2.56306 12.6221 2.95508C12.8028 3.33307 12.8016 3.81303 12.5494 4.21533C11.9206 5.22188 11.6514 6.41208 11.7857 7.59131C11.9201 8.7708 12.4502 9.87005 13.2896 10.7095C14.1291 11.5489 15.2283 12.079 16.4078 12.2134C17.5874 12.3477 18.778 12.0784 19.7847 11.4492L19.8604 11.4048C20.2452 11.1984 20.6885 11.2068 21.0435 11.376C21.4366 11.5633 21.7638 11.9771 21.734 12.5269C21.6324 14.4074 20.9882 16.2183 19.8795 17.7407C18.7706 19.2632 17.2444 20.4323 15.4854 21.106C13.7265 21.7796 11.81 21.9293 9.96785 21.5371C8.12558 21.1448 6.43603 20.2273 5.10408 18.8955C3.77216 17.5637 2.85444 15.8744 2.46199 14.0322C2.06958 12.1901 2.21919 10.2736 2.89265 8.51465C3.56614 6.75561 4.73497 5.22918 6.2574 4.12012C7.77972 3.01119 9.59062 2.36691 11.4713 2.26514ZM11.0557 3.80566C9.64349 3.96805 8.29377 4.49217 7.14021 5.33252C5.8521 6.27092 4.86341 7.56247 4.29353 9.05078C3.72367 10.5392 3.59722 12.1609 3.92927 13.7197C4.26136 15.2785 5.0376 16.708 6.16463 17.835C7.29162 18.9618 8.72109 19.7379 10.2799 20.0698C11.8387 20.4017 13.4604 20.2751 14.9488 19.7051C16.4372 19.135 17.7288 18.1462 18.6671 16.8579C19.5071 15.7046 20.0306 14.3552 20.1929 12.9434C18.9856 13.5913 17.6068 13.8594 16.2384 13.7036C14.7218 13.5309 13.3084 12.8493 12.2291 11.77C11.1498 10.6907 10.4682 9.27733 10.2955 7.76074C10.1396 6.39218 10.4077 5.01312 11.0557 3.80566ZM19.2501 7V5.75H18.0001C17.5859 5.75 17.2501 5.41421 17.2501 5C17.2501 4.58579 17.5859 4.25 18.0001 4.25H19.2501V3C19.2501 2.58579 19.5859 2.25 20.0001 2.25C20.4143 2.25002 20.7501 2.5858 20.7501 3V4.25H22.0001C22.4143 4.25002 22.7501 4.5858 22.7501 5C22.7501 5.4142 22.4143 5.74998 22.0001 5.75H20.7501V7C20.7501 7.4142 20.4143 7.74998 20.0001 7.75C19.5859 7.75 19.2501 7.41421 19.2501 7Z" fill="#5F6368"/>
</svg>
