<svg width="24" height="24" viewBox="0 0 24 24" fill="none" xmlns="http://www.w3.org/2000/svg">
<path d="M21.2501 4.81885C21.2502 4.27015 21.0321 3.74351 20.6441 3.35547C20.2562 2.96749 19.7299 2.74958 19.1812 2.74951C18.6326 2.74945 18.1064 2.96754 17.7184 3.35547L17.7179 3.35498L16.067 5.00635L18.9928 7.93213L20.6436 6.28174C21.0316 5.89384 21.25 5.36748 21.2501 4.81885ZM4.37167 16.7051C4.22659 16.8497 4.11925 17.0278 4.05917 17.2236L2.87509 21.124L6.77939 19.9399C6.97447 19.8805 7.1519 19.7742 7.29648 19.6304L17.9322 8.99268L15.0064 6.06689L4.37167 16.7051ZM22.7501 4.81885C22.75 5.70618 22.4191 6.55928 21.8263 7.21387L21.7042 7.34229L19.6041 9.44238C19.5817 9.47281 19.5579 9.50276 19.5304 9.53027C19.5028 9.5578 19.4729 9.58165 19.4425 9.604L8.35751 20.6914L8.35654 20.6919C8.03781 21.0096 7.64598 21.2445 7.21542 21.3755H7.21445L2.86191 22.6958L2.85996 22.6963C2.64388 22.7612 2.41421 22.7664 2.1954 22.7114C1.97657 22.6564 1.77648 22.5432 1.61679 22.3838C1.4571 22.2244 1.34355 22.0244 1.28818 21.8057C1.23284 21.5869 1.23774 21.3573 1.30234 21.1411L1.30332 21.1382L2.62412 16.7861L2.62509 16.7842C2.75725 16.3532 2.99334 15.9609 3.31259 15.6426L14.3956 4.55664C14.4179 4.52634 14.4424 4.49714 14.4698 4.46973C14.4972 4.44232 14.5264 4.41778 14.5567 4.39551L16.6578 2.29443L16.7862 2.17236C17.4409 1.5798 18.294 1.24946 19.1812 1.24951C20.1277 1.24963 21.0355 1.62568 21.7047 2.29492C22.3739 2.9643 22.7502 3.87232 22.7501 4.81885Z" fill="#5F6368"/>
</svg>
