<svg width="24" height="24" viewBox="0 0 24 24" fill="none" xmlns="http://www.w3.org/2000/svg">
<path d="M16.667 20.2456C17.0093 20.2456 17.3455 20.3311 17.645 20.4937L17.771 20.5684L17.7725 20.5693L18.6997 21.1655C18.7884 21.2214 18.8913 21.2506 18.9961 21.25H19C19.0663 21.25 19.1299 21.2236 19.1768 21.1768C19.2236 21.1299 19.25 21.0663 19.25 21V3C19.25 2.93375 19.2236 2.87009 19.1768 2.82324C19.1299 2.77641 19.0663 2.75 19 2.75H18.9961C18.8913 2.74942 18.7884 2.77913 18.6997 2.83496L17.7725 3.43115L17.771 3.43213C17.4414 3.64277 17.0582 3.75488 16.667 3.75488C16.2758 3.75488 15.8926 3.64277 15.563 3.43213L15.5615 3.43115L14.6274 2.83105V2.83057C14.5394 2.77485 14.4372 2.74561 14.333 2.74561C14.2287 2.74561 14.1262 2.77471 14.0381 2.83057L14.0386 2.83105L13.1055 3.43115L13.104 3.43213C12.8155 3.61648 12.486 3.72524 12.146 3.74951L12 3.75488C11.6088 3.75488 11.2256 3.64277 10.896 3.43213L10.8945 3.43115L9.96143 2.83105V2.83057C9.87343 2.77485 9.77118 2.74561 9.66699 2.74561C9.56267 2.74561 9.46015 2.77471 9.37207 2.83057L9.37256 2.83105L8.43848 3.43115L8.43701 3.43213C8.10738 3.64277 7.72419 3.75488 7.33301 3.75488C6.94182 3.75488 6.55864 3.64277 6.229 3.43213L6.22754 3.43115L5.30029 2.83496L5.23145 2.79785C5.16022 2.76605 5.0825 2.74957 5.00391 2.75H5C4.93373 2.75 4.87012 2.77641 4.82324 2.82324C4.7764 2.87009 4.75004 2.93375 4.75 3V21C4.75 21.0663 4.77641 21.1299 4.82324 21.1768C4.87013 21.2236 4.93369 21.25 5 21.25H5.00391C5.10867 21.2506 5.21165 21.2214 5.30029 21.1655L6.22754 20.5693L6.229 20.5684C6.55864 20.3577 6.94182 20.2456 7.33301 20.2456C7.67533 20.2456 8.01152 20.3311 8.31104 20.4937L8.43701 20.5684L8.43848 20.5693L9.37256 21.1689C9.46064 21.2248 9.56266 21.2549 9.66699 21.2549C9.74576 21.2549 9.82336 21.2379 9.89453 21.2056L9.96338 21.168L10.8945 20.5693L10.896 20.5684C11.2256 20.3577 11.6088 20.2456 12 20.2456C12.3423 20.2456 12.6785 20.3311 12.978 20.4937L13.104 20.5684L13.1055 20.5693L14.0361 21.168H14.0366C14.1251 21.2245 14.2281 21.2549 14.333 21.2549C14.4373 21.2549 14.5394 21.2248 14.6274 21.1689L15.5615 20.5693L15.563 20.5684C15.8926 20.3577 16.2758 20.2456 16.667 20.2456ZM13 15.25C13.4142 15.25 13.7499 15.5859 13.75 16C13.75 16.4142 13.4142 16.75 13 16.75H8C7.58579 16.75 7.25 16.4142 7.25 16C7.25009 15.5859 7.58584 15.25 8 15.25H13ZM16 11.25C16.4142 11.25 16.7499 11.5859 16.75 12C16.75 12.4142 16.4142 12.75 16 12.75H8C7.58579 12.75 7.25 12.4142 7.25 12C7.25009 11.5859 7.58584 11.25 8 11.25H16ZM14 7.25C14.4142 7.25 14.7499 7.58586 14.75 8C14.75 8.41421 14.4142 8.75 14 8.75H8C7.58579 8.75 7.25 8.41421 7.25 8C7.25009 7.58586 7.58584 7.25 8 7.25H14ZM20.75 21C20.75 21.4641 20.5655 21.9096 20.2373 22.2378C19.9099 22.5651 19.4662 22.7486 19.0034 22.7495L19.0039 22.75C19.0033 22.75 19.0026 22.7495 19.002 22.7495C19.0013 22.7495 19.0007 22.75 19 22.75V22.7495C18.6109 22.7509 18.2296 22.6419 17.9004 22.4346L17.8945 22.4312L16.9614 21.8311V21.8306C16.8734 21.7749 16.7712 21.7456 16.667 21.7456C16.5627 21.7456 16.4601 21.7747 16.3721 21.8306L16.3726 21.8311L15.4385 22.4312L15.437 22.4321C15.1074 22.6428 14.7242 22.7549 14.333 22.7549C13.9418 22.7549 13.5586 22.6428 13.229 22.4321L13.2275 22.4312L12.2944 21.8311V21.8306C12.2064 21.7748 12.1042 21.7456 12 21.7456C11.8957 21.7456 11.7932 21.7747 11.7051 21.8306L11.7056 21.8311L10.7725 22.4312L10.771 22.4321C10.4414 22.6428 10.0582 22.7549 9.66699 22.7549C9.2758 22.7549 8.89262 22.6428 8.56299 22.4321L8.56152 22.4312L7.62744 21.8311V21.8306C7.53944 21.7748 7.43719 21.7456 7.33301 21.7456C7.22869 21.7456 7.12616 21.7747 7.03809 21.8306L7.03857 21.8311L6.10547 22.4312L6.09961 22.4346C5.77037 22.6419 5.38905 22.7509 5 22.7495V22.75C4.99919 22.75 4.99837 22.7495 4.99756 22.7495L4.99609 22.75V22.7495C4.53345 22.7485 4.08995 22.565 3.7627 22.2378C3.43451 21.9096 3.25 21.4641 3.25 21V3C3.25004 2.53593 3.43454 2.09085 3.7627 1.7627C4.08996 1.43548 4.53341 1.25152 4.99609 1.25049V1.25L4.99756 1.25049C4.99837 1.25049 4.99919 1.25 5 1.25V1.25049C5.34031 1.2493 5.67482 1.33245 5.97363 1.49219L6.09961 1.56543L6.10547 1.56934L7.03613 2.16797H7.03662C7.12506 2.22448 7.22805 2.25488 7.33301 2.25488C7.43734 2.25488 7.53936 2.22481 7.62744 2.16895L8.56152 1.56934L8.56299 1.56836C8.89262 1.35772 9.27581 1.24561 9.66699 1.24561C10.0093 1.24561 10.3455 1.33109 10.645 1.49365L10.771 1.56836L10.7725 1.56934L11.7031 2.16797H11.7036C11.7921 2.22448 11.895 2.25488 12 2.25488L12.0781 2.24902C12.1297 2.24162 12.1801 2.22713 12.2275 2.20557L12.2964 2.16797L13.2275 1.56934L13.229 1.56836C13.5586 1.35772 13.9418 1.24561 14.333 1.24561C14.6753 1.24561 15.0115 1.33109 15.311 1.49365L15.437 1.56836L15.4385 1.56934L16.3726 2.16895C16.4606 2.22481 16.5627 2.25488 16.667 2.25488C16.7458 2.25488 16.8234 2.2379 16.8945 2.20557L16.9634 2.16797L17.8945 1.56934L17.9004 1.56543C18.2296 1.35811 18.611 1.24913 19 1.25049C19.0007 1.25049 19.0013 1.25049 19.002 1.25049C19.0026 1.25049 19.0033 1.25 19.0039 1.25L19.0034 1.25049C19.4663 1.25139 19.9099 1.43536 20.2373 1.7627C20.5655 2.09085 20.75 2.53593 20.75 3V21Z" fill="#5F6368"/>
</svg>
