<svg width="24" height="24" viewBox="0 0 24 24" fill="none" xmlns="http://www.w3.org/2000/svg">
  <path
    d="M2.25 21V16C2.25 15.5858 2.58579 15.25 3 15.25H8C8.41421 15.25 8.75 15.5858 8.75 16C8.75 16.4142 8.41421 16.75 8 16.75H4.81104L5.78955 17.7285C7.45814 19.3375 9.68322 20.2404 12.0015 20.2495C14.189 20.2491 16.2867 19.3803 17.8335 17.8335C19.3807 16.2863 20.25 14.188 20.25 12C20.25 11.5858 20.5858 11.25 21 11.25C21.4142 11.25 21.75 11.5858 21.75 12C21.75 14.5859 20.723 17.0661 18.8945 18.8945C17.0661 20.723 14.5859 21.75 12 21.75H11.9971C9.28755 21.7398 6.68686 20.6825 4.73877 18.7993C4.73573 18.7964 4.73248 18.7935 4.72949 18.7905L3.75 17.8105V21C3.75 21.4142 3.41421 21.75 3 21.75C2.58579 21.75 2.25 21.4142 2.25 21ZM2.25 12C2.25 9.41414 3.27699 6.93395 5.10547 5.10547C6.93395 3.27699 9.41414 2.25 12 2.25H12.0029L12.2563 2.25391C14.8742 2.32693 17.374 3.37624 19.2612 5.20068C19.2643 5.20362 19.2675 5.20649 19.2705 5.20947L20.25 6.18896V3C20.25 2.58579 20.5858 2.25 21 2.25C21.4142 2.25 21.75 2.58579 21.75 3V8C21.75 8.41421 21.4142 8.75 21 8.75H16C15.5858 8.75 15.25 8.41421 15.25 8C15.25 7.58579 15.5858 7.25 16 7.25H19.189L18.2095 6.27051H18.209C16.5404 4.66213 14.3159 3.75894 11.998 3.75C9.81072 3.75052 7.71322 4.61979 6.1665 6.1665C4.61933 7.71368 3.75 9.81196 3.75 12C3.75 12.4142 3.41421 12.75 3 12.75C2.58579 12.75 2.25 12.4142 2.25 12Z"
    fill="currentColor"
  />
</svg>
