<svg width="24" height="24" viewBox="0 0 24 24" fill="none" xmlns="http://www.w3.org/2000/svg">
  <path
    d="M3.31589 2.26049C3.56075 2.22491 3.81057 2.26319 4.03366 2.36986L4.03415 2.36937L22.0341 10.8694L22.0346 10.8699C22.2486 10.9711 22.4294 11.1309 22.5561 11.3308C22.6828 11.5308 22.7504 11.763 22.7505 11.9997C22.7505 12.2365 22.6828 12.4686 22.5561 12.6687C22.4295 12.8686 22.2486 13.0284 22.0346 13.1296L22.0341 13.1301L4.03415 21.6301L4.03366 21.6296C3.81026 21.7362 3.56039 21.7745 3.3154 21.7385C3.06777 21.7021 2.8366 21.5919 2.65231 21.4226C2.46803 21.2532 2.33881 21.032 2.28171 20.7883C2.22522 20.547 2.24203 20.2944 2.32956 20.0627L5.17135 12.4358C5.26297 12.1896 5.27431 11.9217 5.20553 11.6702L5.17135 11.5637L2.32809 3.93676L2.32858 3.93627C2.24107 3.70468 2.22385 3.45238 2.28024 3.21117L2.30514 3.12084C2.37067 2.91254 2.48969 2.72434 2.65134 2.57592L2.72311 2.51537C2.89455 2.38024 3.09879 2.29207 3.31589 2.26049ZM3.49997 20.4997V20.4988L3.49753 20.4983L3.49655 20.5032L3.49997 20.4997ZM3.49997 20.4988V20.4997L3.49655 20.5032L3.49753 20.4983L3.49997 20.4988ZM6.64499 12.7497C6.62499 12.8203 6.60239 12.8905 6.57663 12.9597L3.94919 20.011L19.3266 12.7497H6.64499ZM6.57663 11.0398V11.0403C6.60236 11.1094 6.625 11.1793 6.64499 11.2497H19.3266L3.94772 3.98754L6.57663 11.0398Z"
    fill="currentColor"
  />
</svg>
