<svg width="24" height="24" viewBox="0 0 24 24" fill="none" xmlns="http://www.w3.org/2000/svg">
<path d="M18.2331 11.9995C18.2331 11.5033 18.3528 11.0145 18.5817 10.5742C18.8095 10.1362 19.1388 9.75913 19.5422 9.47461C19.8631 9.24471 20.0873 8.90347 20.1706 8.51758C20.254 8.13163 20.1909 7.72812 19.9934 7.38623C19.7958 7.04437 19.4777 6.78855 19.1018 6.66797C18.7259 6.54745 18.3186 6.57075 17.9592 6.73389L17.9587 6.7334C17.5106 6.94086 17.0195 7.03864 16.5261 7.01709C16.0302 6.99541 15.5468 6.85446 15.1169 6.60645C14.6869 6.35836 14.3228 6.0103 14.0559 5.5918C13.7898 5.17466 13.6276 4.69978 13.5832 4.20703C13.5458 3.81322 13.3632 3.44732 13.0705 3.18115C12.7779 2.91499 12.3963 2.76762 12.0007 2.76758C11.6051 2.76758 11.2236 2.91503 10.9309 3.18115C10.6382 3.44733 10.4551 3.8132 10.4177 4.20703C10.4154 4.23135 10.4115 4.2553 10.4069 4.27881C10.3539 4.7458 10.1962 5.19499 9.94308 5.5918C9.67613 6.01025 9.31244 6.35837 8.88253 6.60645C8.45256 6.85453 7.96879 6.99541 7.47286 7.01709C6.97965 7.03862 6.48871 6.94117 6.04073 6.73389V6.73438C5.6813 6.57178 5.2742 6.54868 4.89864 6.66943C4.52313 6.79019 4.20581 7.04614 4.00851 7.3877C3.8112 7.72936 3.74813 8.13238 3.83126 8.51807C3.91438 8.90368 4.13777 9.24457 4.45821 9.47461H4.45772C4.86119 9.75915 5.19087 10.1361 5.41866 10.5742C5.64754 11.0144 5.76678 11.5033 5.76681 11.9995C5.76681 12.4958 5.64758 12.985 5.41866 13.4253C5.19086 13.8634 4.86121 14.2404 4.45772 14.5249L4.342 14.6162C4.08298 14.8408 3.90222 15.1442 3.82931 15.4819C3.746 15.8679 3.80954 16.2709 4.00704 16.6128C4.20456 16.9547 4.52218 17.211 4.89815 17.3315C5.27405 17.4521 5.68127 17.4283 6.04073 17.2651C6.48894 17.0574 6.98072 16.9605 7.47433 16.9819C7.97034 17.0035 8.45392 17.144 8.88399 17.3921C9.31414 17.6402 9.67798 17.9886 9.94503 18.4072C10.2111 18.8244 10.3734 19.2992 10.4177 19.792L10.4387 19.9385C10.5028 20.276 10.6748 20.585 10.9309 20.8179C11.2236 21.0841 11.605 21.2319 12.0007 21.2319C12.3963 21.2319 12.7779 21.084 13.0705 20.8179C13.3631 20.5517 13.5458 20.1858 13.5832 19.792C13.6276 19.2993 13.7898 18.8243 14.0559 18.4072C14.3228 17.9888 14.687 17.6411 15.1169 17.3931C15.5468 17.145 16.0302 17.0041 16.5261 16.9824C17.0194 16.9609 17.5106 17.0578 17.9587 17.2651C18.3182 17.4283 18.7258 17.4521 19.1018 17.3315C19.4777 17.211 19.7958 16.9547 19.9934 16.6128C20.1908 16.271 20.2539 15.8678 20.1706 15.4819C20.0977 15.1442 19.917 14.8408 19.6579 14.6162L19.5422 14.5249C19.1388 14.2404 18.8095 13.8633 18.5817 13.4253C18.3528 12.985 18.2331 12.4958 18.2331 11.9995ZM14.2502 12C14.2501 10.7575 13.2427 9.7501 12.0002 9.75C10.7576 9.75 9.75029 10.7574 9.75021 12C9.75021 13.2426 10.7576 14.25 12.0002 14.25C13.2428 14.2499 14.2502 13.2426 14.2502 12ZM15.7502 12C15.7502 14.071 14.0712 15.7499 12.0002 15.75C9.92914 15.75 8.25021 14.0711 8.25021 12C8.25029 9.929 9.92919 8.25 12.0002 8.25C14.0711 8.2501 15.7501 9.92906 15.7502 12ZM19.7331 11.9995C19.7331 12.2548 19.7946 12.5064 19.9123 12.7329C20.0154 12.9312 20.1589 13.1055 20.3332 13.2441L20.4099 13.3013L20.4157 13.3057C21.0395 13.7525 21.475 14.4155 21.6369 15.1655C21.7988 15.9155 21.6755 16.6989 21.2917 17.3633C20.9079 18.0276 20.2908 18.5254 19.5603 18.7598C18.8296 18.9941 18.0378 18.9481 17.3391 18.6309C17.3369 18.6299 17.3344 18.629 17.3322 18.6279C17.1007 18.5201 16.8467 18.4698 16.5915 18.481C16.3364 18.4921 16.0876 18.5643 15.8664 18.6919C15.6452 18.8195 15.4579 18.999 15.3205 19.2144C15.1832 19.4297 15.0994 19.6748 15.0769 19.9292V19.9341C15.0041 20.6995 14.6481 21.4104 14.0793 21.9277C13.5105 22.445 12.7695 22.7319 12.0007 22.7319C11.2318 22.7319 10.4904 22.445 9.92159 21.9277C9.35276 21.4104 8.99728 20.6995 8.92452 19.9341L8.92403 19.9292C8.90157 19.6747 8.81779 19.4293 8.68038 19.2139C8.54297 18.9985 8.35581 18.8191 8.13448 18.6914C7.91317 18.5638 7.66414 18.4916 7.4089 18.4805C7.15371 18.4694 6.89967 18.52 6.66817 18.6279C6.66586 18.629 6.66317 18.6298 6.66085 18.6309C5.96222 18.948 5.17074 18.994 4.44015 18.7598C3.7095 18.5254 3.09208 18.0277 2.70821 17.3633C2.32439 16.6989 2.20159 15.9155 2.36349 15.1655C2.52543 14.4155 2.96047 13.7525 3.58419 13.3057L3.59005 13.3013C3.79907 13.1546 3.96981 12.9595 4.08761 12.7329C4.20535 12.5064 4.26681 12.2548 4.26681 11.9995C4.26678 11.7442 4.20538 11.4926 4.08761 11.2661C3.96981 11.0396 3.79905 10.8449 3.59005 10.6982C3.58789 10.6967 3.58584 10.6949 3.5837 10.6934C2.9608 10.2463 2.52651 9.5835 2.36495 8.83398C2.20343 8.08449 2.32626 7.30165 2.70968 6.6377C3.09313 5.97378 3.70976 5.4759 4.43966 5.24121C5.12388 5.02125 5.86196 5.04707 6.52706 5.31152L6.65938 5.36768L6.66671 5.37109C6.89821 5.47893 7.15229 5.52969 7.40743 5.51855C7.66257 5.5074 7.91132 5.43474 8.13253 5.30713C8.35374 5.17949 8.54106 5.00046 8.67843 4.78516C8.81576 4.56987 8.89955 4.32467 8.92208 4.07031C8.92446 4.0434 8.92773 4.01665 8.93282 3.99072C9.02094 3.25377 9.37129 2.57228 9.92159 2.07178C10.4904 1.55445 11.2318 1.26758 12.0007 1.26758C12.7695 1.26762 13.5105 1.5545 14.0793 2.07178C14.6126 2.55678 14.9587 3.21165 15.0598 3.92236L15.0769 4.06494L15.0774 4.07031H15.0769C15.0994 4.32467 15.1832 4.56987 15.3205 4.78516C15.4579 5.00048 15.6452 5.17948 15.8664 5.30713C16.0876 5.43476 16.3363 5.5074 16.5915 5.51855C16.8467 5.5297 17.1007 5.47895 17.3322 5.37109C17.3344 5.37006 17.3369 5.36917 17.3391 5.36816C18.0377 5.05099 18.8296 5.00492 19.5603 5.23926C20.2909 5.47362 20.9079 5.97184 21.2917 6.63623C21.6755 7.30063 21.7989 8.08396 21.6369 8.83398C21.475 9.58403 21.0395 10.247 20.4157 10.6938C20.4138 10.6953 20.4119 10.6968 20.4099 10.6982C20.2009 10.8449 20.0301 11.0396 19.9123 11.2661C19.7945 11.4926 19.7331 11.7442 19.7331 11.9995Z" fill="#5F6368"/>
</svg>
