<svg width="24" height="24" viewBox="0 0 24 24" fill="none" xmlns="http://www.w3.org/2000/svg">
<path d="M19.25 6C19.25 5.9337 19.2236 5.87012 19.1768 5.82324C19.1299 5.77636 19.0663 5.75 19 5.75C16.7592 5.75 14.1023 4.44877 12.2695 2.84766C12.194 2.78438 12.0986 2.74951 12 2.74951C11.9 2.74951 11.8031 2.78512 11.7271 2.8501C9.96207 4.38968 7.40605 5.66765 5.21143 5.74609L5 5.75C4.9337 5.75 4.87013 5.77636 4.82324 5.82324C4.77637 5.87012 4.75 5.93371 4.75 6V13C4.75001 15.3019 5.54709 16.9893 6.80811 18.2808C8.00951 19.5112 9.66188 20.4112 11.5371 21.0967L11.915 21.231L11.9316 21.2373C11.985 21.2572 12.0436 21.2577 12.0977 21.2397C14.1221 20.5336 15.9132 19.5956 17.1929 18.2827C18.4531 16.9897 19.25 15.3019 19.25 13V6ZM14.4697 9.46973C14.7626 9.17683 15.2374 9.17683 15.5303 9.46973C15.8231 9.76262 15.8232 10.2374 15.5303 10.5303L11.5303 14.5303C11.2374 14.8231 10.7626 14.8231 10.4697 14.5303L8.46973 12.5303C8.17684 12.2374 8.17685 11.7626 8.46973 11.4697C8.76262 11.1768 9.23738 11.1768 9.53027 11.4697L11 12.9395L14.4697 9.46973ZM20.75 13C20.75 15.698 19.7968 17.7601 18.2671 19.3296C16.7578 20.8781 14.7205 21.9145 12.5869 22.6582L12.5806 22.6602C12.205 22.7874 11.7979 22.7825 11.4253 22.6479V22.6489C9.28615 21.9102 7.24589 20.8766 5.73486 19.3291C4.2034 17.7606 3.25001 15.698 3.25 13V6C3.25 5.53588 3.43452 5.09088 3.7627 4.7627C4.09088 4.43451 4.53587 4.25 5 4.25L5.1665 4.24658C6.90241 4.18143 9.14056 3.11825 10.7466 1.71533L10.7529 1.70996C11.1006 1.41293 11.5427 1.24951 12 1.24951C12.4573 1.24951 12.8994 1.41293 13.2471 1.70996C13.2492 1.71176 13.2513 1.71351 13.2534 1.71533C14.9206 3.17289 17.2422 4.25 19 4.25C19.4641 4.25 19.9091 4.43451 20.2373 4.7627C20.5655 5.09088 20.75 5.53588 20.75 6V13Z" fill="#5F6368"/>
</svg>
