<svg width="24" height="24" viewBox="0 0 24 24" fill="none" xmlns="http://www.w3.org/2000/svg">
<path d="M15.25 20C15.25 19.586 15.5855 19.2503 15.9995 19.25C16.2349 19.2499 16.4658 19.1836 16.665 19.0581C16.8642 18.9327 17.0236 18.7532 17.1255 18.541C17.2273 18.3288 17.2674 18.0922 17.2407 17.8584C17.214 17.6245 17.1217 17.4025 16.9746 17.2188C16.7327 16.9166 16.7603 16.48 17.0385 16.2109C18.0771 15.2071 18.7925 13.9159 19.0923 12.5029C19.392 11.0901 19.263 9.61979 18.7217 8.28076C18.1803 6.94167 17.2508 5.79437 16.0532 4.98682C14.8557 4.17937 13.4443 3.74805 12 3.74805C10.5557 3.74805 9.14426 4.17937 7.94675 4.98682C6.74919 5.79437 5.82018 6.94167 5.27878 8.28076C4.73742 9.61983 4.60789 11.09 4.90769 12.5029C5.20749 13.9159 5.92287 15.2071 6.9614 16.2109C7.23963 16.48 7.26726 16.9166 7.02536 17.2188C6.87822 17.4025 6.78599 17.6245 6.75925 17.8584C6.73257 18.0922 6.77264 18.3288 6.87449 18.541C6.97635 18.7532 7.13576 18.9327 7.33494 19.0581C7.53416 19.1836 7.76503 19.2499 8.00046 19.25C8.41444 19.2503 8.74991 19.586 8.74997 20V21C8.74997 21.0663 8.77637 21.1299 8.82322 21.1768C8.8701 21.2236 8.93367 21.25 8.99997 21.25H15C15.0663 21.25 15.1298 21.2236 15.1767 21.1768C15.2236 21.1299 15.25 21.0663 15.25 21V20ZM12 15.25C12.284 15.25 12.5438 15.4105 12.6709 15.6646L13.1709 16.6646C13.2871 16.897 13.2748 17.1734 13.1382 17.3945C13.0015 17.6156 12.7599 17.75 12.5 17.75H11.5C11.24 17.75 10.9984 17.6156 10.8618 17.3945C10.7251 17.1734 10.7128 16.897 10.8291 16.6646L11.3291 15.6646C11.4561 15.4105 11.7159 15.25 12 15.25ZM9.24997 12C9.24991 11.862 9.138 11.75 8.99997 11.75C8.86195 11.75 8.75004 11.862 8.74997 12C8.74997 12.1381 8.8619 12.25 8.99997 12.25C9.13805 12.25 9.24997 12.1381 9.24997 12ZM15.25 12C15.2499 11.862 15.138 11.75 15 11.75C14.8619 11.75 14.75 11.862 14.75 12C14.75 12.1381 14.8619 12.25 15 12.25C15.138 12.25 15.25 12.1381 15.25 12ZM16.75 21C16.75 21.4641 16.5655 21.9096 16.2373 22.2378C15.9091 22.5659 15.464 22.75 15 22.75H8.99997C8.53593 22.75 8.09084 22.5659 7.76267 22.2378C7.43448 21.9096 7.24997 21.4641 7.24997 21V20.645C6.99932 20.5738 6.75878 20.4673 6.53611 20.3271C6.09781 20.0512 5.74608 19.6569 5.52195 19.1899C5.2979 18.7231 5.21024 18.2025 5.26902 17.688C5.30207 17.3988 5.38197 17.1186 5.50193 16.8564C4.47389 15.7162 3.76057 14.3232 3.4404 12.8145C3.07857 11.1092 3.23427 9.3344 3.88767 7.71826C4.54108 6.10211 5.66256 4.7178 7.10788 3.74316C8.55319 2.76857 10.2568 2.24805 12 2.24805C13.7432 2.24805 15.4468 2.76857 16.8921 3.74316C18.3374 4.7178 19.4589 6.10211 20.1123 7.71826C20.7657 9.3344 20.9214 11.1092 20.5595 12.8145C20.2394 14.3233 19.5257 15.7161 18.4975 16.8564C18.6175 17.1186 18.6979 17.3987 18.7309 17.688C18.7897 18.2025 18.702 18.7231 18.478 19.1899C18.2539 19.6569 17.9021 20.0512 17.4638 20.3271C17.2412 20.4673 17.0006 20.5738 16.75 20.645V21ZM10.75 12C10.75 12.9665 9.96647 13.75 8.99997 13.75C8.03348 13.75 7.24997 12.9665 7.24997 12C7.25004 11.0336 8.03352 10.25 8.99997 10.25C9.96643 10.25 10.7499 11.0336 10.75 12ZM16.75 12C16.75 12.9665 15.9665 13.75 15 13.75C14.0335 13.75 13.25 12.9665 13.25 12C13.25 11.0336 14.0335 10.25 15 10.25C15.9664 10.25 16.7499 11.0336 16.75 12Z" fill="#5F6368"/>
</svg>
