<svg width="24" height="24" viewBox="0 0 24 24" fill="none" xmlns="http://www.w3.org/2000/svg">
<path d="M21.2525 12C21.2525 11.9417 21.2321 11.8852 21.1949 11.8403C21.1576 11.7955 21.1057 11.7651 21.0484 11.7544L21.0464 11.7539L15.4888 10.7031C14.9455 10.6005 14.4457 10.3363 14.0547 9.94531C13.6881 9.5787 13.4329 9.11643 13.3179 8.6123L13.2969 8.51123L12.2462 2.95312L12.2457 2.95166C12.235 2.89432 12.2046 2.84245 12.1597 2.80518C12.1149 2.76793 12.0584 2.74757 12.0001 2.74756C11.9418 2.74756 11.8853 2.76795 11.8404 2.80518C11.7955 2.84244 11.7652 2.89432 11.7545 2.95166L11.754 2.95312L10.7032 8.51123C10.6005 9.05455 10.3364 9.55433 9.94537 9.94531C9.57878 10.3119 9.11646 10.5666 8.61237 10.6816L8.51129 10.7031L2.95319 11.7539L2.95172 11.7544C2.89439 11.7651 2.8425 11.7955 2.80524 11.8403C2.76801 11.8852 2.74762 11.9417 2.74762 12C2.74763 12.0583 2.76799 12.1148 2.80524 12.1597C2.83315 12.1933 2.8693 12.2187 2.90973 12.2339L2.95172 12.2456L2.95319 12.2461L8.51129 13.2969L8.61237 13.3179C9.11649 13.4329 9.57876 13.6881 9.94537 14.0547C10.3363 14.4457 10.6006 14.9455 10.7032 15.4888L11.754 21.0464L11.7545 21.0483C11.7652 21.1056 11.7955 21.1576 11.8404 21.1948C11.8853 21.232 11.9418 21.2524 12.0001 21.2524C12.0583 21.2524 12.1149 21.232 12.1597 21.1948C12.2046 21.1576 12.2349 21.1056 12.2457 21.0483L12.2462 21.0464L13.2969 15.4888C13.3996 14.9454 13.6638 14.4457 14.0547 14.0547C14.4457 13.6637 14.9455 13.3995 15.4888 13.2969L21.0464 12.2461L21.0484 12.2456C21.1057 12.2349 21.1576 12.2045 21.1949 12.1597C21.2321 12.1148 21.2525 12.0583 21.2525 12ZM5.25006 20C5.25006 19.3097 4.6904 18.75 4.00006 18.75C3.30971 18.75 2.75006 19.3096 2.75006 20C2.75009 20.6903 3.30972 21.25 4.00006 21.25C4.69038 21.25 5.25004 20.6903 5.25006 20ZM19.2501 6V4.75H18.0001C17.5859 4.75 17.2501 4.41419 17.2501 4C17.2501 3.58579 17.5858 3.25 18.0001 3.25H19.2501V2C19.2501 1.58579 19.5858 1.25 20.0001 1.25C20.4143 1.25003 20.7501 1.5858 20.7501 2V3.25H22.0001C22.4143 3.25003 22.7501 3.5858 22.7501 4C22.75 4.41418 22.4142 4.74997 22.0001 4.75H20.7501V6C20.75 6.41418 20.4142 6.74997 20.0001 6.75C19.5859 6.75 19.2501 6.41419 19.2501 6ZM6.75006 20C6.75004 21.5187 5.51881 22.75 4.00006 22.75C2.48129 22.75 1.25009 21.5188 1.25006 20C1.25006 18.4812 2.48128 17.25 4.00006 17.25C5.51882 17.25 6.75006 18.4812 6.75006 20ZM22.7525 12C22.7525 12.4084 22.6096 12.804 22.3487 13.1182C22.0878 13.4323 21.7252 13.6452 21.3238 13.7202L21.3233 13.7197L15.7672 14.771C15.5202 14.8177 15.293 14.9375 15.1153 15.1152C14.9376 15.2929 14.8177 15.5202 14.7711 15.7671L13.7198 21.3232C13.6448 21.7247 13.4324 22.0877 13.1182 22.3486C12.8041 22.6095 12.4084 22.7524 12.0001 22.7524C11.5917 22.7524 11.1961 22.6096 10.8819 22.3486C10.568 22.0879 10.355 21.7257 10.2798 21.3247V21.3252L9.22906 15.7671C9.18241 15.5202 9.0625 15.2929 8.88483 15.1152C8.70715 14.9376 8.47987 14.8177 8.23297 14.771H8.23248L2.67633 13.7197V13.7202C2.27493 13.6452 1.91234 13.4323 1.65143 13.1182C1.39052 12.804 1.24763 12.4084 1.24762 12C1.24762 11.5916 1.39051 11.196 1.65143 10.8818C1.91204 10.5681 2.274 10.355 2.67487 10.2798L8.23248 9.229H8.23297C8.47988 9.18233 8.70714 9.06245 8.88483 8.88477C9.06251 8.70708 9.18239 8.47981 9.22906 8.23291V8.23242L10.2798 2.6748C10.3551 2.27394 10.5681 1.91198 10.8819 1.65137C11.1961 1.39045 11.5917 1.24756 12.0001 1.24756C12.4084 1.24757 12.8041 1.39046 13.1182 1.65137C13.4319 1.91196 13.6446 2.27399 13.7198 2.6748L14.7711 8.23242V8.23291C14.8177 8.47981 14.9376 8.70709 15.1153 8.88477C15.293 9.06244 15.5202 9.18234 15.7672 9.229L21.3253 10.2798H21.3248C21.7258 10.3549 22.088 10.5679 22.3487 10.8818C22.6096 11.196 22.7525 11.5916 22.7525 12Z" fill="#5F6368"/>
</svg>
