<svg width="24" height="24" viewBox="0 0 24 24" fill="none" xmlns="http://www.w3.org/2000/svg">
  <path
    d="M2.25 19V5C2.25 4.27065 2.53994 3.57139 3.05566 3.05566C3.57139 2.53994 4.27065 2.25 5 2.25H17.3442C17.7583 2.25013 18.0942 2.58587 18.0942 3C18.0942 3.41413 17.7583 3.74987 17.3442 3.75H5C4.66848 3.75 4.35063 3.88179 4.11621 4.11621C3.88179 4.35063 3.75 4.66848 3.75 5V19C3.75 19.3315 3.88179 19.6494 4.11621 19.8838C4.35063 20.1182 4.66848 20.25 5 20.25H19C19.3315 20.25 19.6494 20.1182 19.8838 19.8838C20.1182 19.6494 20.25 19.3315 20.25 19V10.6558C20.2501 10.2417 20.5859 9.90576 21 9.90576C21.4141 9.90576 21.7499 10.2417 21.75 10.6558V19C21.75 19.7293 21.4601 20.4286 20.9443 20.9443C20.4286 21.4601 19.7293 21.75 19 21.75H5C4.27065 21.75 3.57139 21.4601 3.05566 20.9443C2.53994 20.4286 2.25 19.7293 2.25 19ZM21.4697 3.46973C21.7626 3.17683 22.2374 3.17683 22.5303 3.46973C22.8232 3.76262 22.8232 4.23738 22.5303 4.53027L12.5303 14.5303C12.2374 14.8232 11.7626 14.8232 11.4697 14.5303L8.46973 11.5303C8.17683 11.2374 8.17683 10.7626 8.46973 10.4697C8.76262 10.1768 9.23738 10.1768 9.53027 10.4697L12 12.9395L21.4697 3.46973Z"
    fill="currentColor"
  />
</svg>
