<svg width="24" height="24" viewBox="0 0 24 24" fill="none" xmlns="http://www.w3.org/2000/svg">
<path d="M12.089 1.25293C12.2668 1.26532 12.4402 1.31472 12.5978 1.39795L12.675 1.44238L12.7492 1.49219C12.9178 1.61387 13.0545 1.77527 13.1471 1.9624L13.1476 1.96289L15.4577 6.64209C15.5561 6.84096 15.7011 7.01301 15.8805 7.14355C16.0602 7.27422 16.2691 7.35934 16.4889 7.3916H16.4885L21.653 8.14746H21.6535C21.8603 8.17743 22.0562 8.25775 22.2243 8.38037L22.2946 8.43555L22.361 8.49561C22.4891 8.61978 22.5901 8.7692 22.6569 8.93457L22.6872 9.01855L22.7121 9.10449C22.7624 9.30632 22.7626 9.51785 22.7126 9.7207C22.6625 9.92357 22.5639 10.1108 22.4255 10.2661L22.3635 10.3311L18.6271 13.9688L18.6276 13.9692C18.4683 14.1245 18.3488 14.3158 18.28 14.5273C18.2112 14.7388 18.1947 14.964 18.2321 15.1831L19.1144 20.3232H19.1139C19.1547 20.5584 19.1291 20.8002 19.0397 21.0215C18.9498 21.2439 18.7993 21.4366 18.6052 21.5776C18.4111 21.7186 18.1814 21.8022 17.9421 21.8188C17.704 21.8354 17.466 21.7849 17.2551 21.6733V21.6738L12.6374 19.2456V19.2461C12.4407 19.1428 12.2218 19.0889 11.9997 19.0889C11.7775 19.0889 11.5582 19.1428 11.3615 19.2461L11.361 19.2456L6.74529 21.6738L6.7448 21.6733C6.53355 21.7847 6.29554 21.8353 6.0573 21.8184C5.81834 21.8014 5.58894 21.7176 5.39519 21.5767C5.20145 21.4358 5.05089 21.2431 4.96111 21.021C4.87141 20.799 4.846 20.5562 4.88738 20.3203L5.76775 15.1841C5.80538 14.9647 5.78921 14.7395 5.72039 14.5278C5.66019 14.3427 5.56134 14.1729 5.43084 14.0293L5.37273 13.9692L1.63689 10.3325L1.63738 10.332C1.466 10.1658 1.34413 9.95532 1.2863 9.72363C1.22827 9.49101 1.23672 9.2466 1.31072 9.01855C1.38472 8.79053 1.52122 8.58781 1.70476 8.43359L1.77556 8.37842C1.94351 8.25631 2.13902 8.17676 2.34539 8.14697L7.51043 7.3916H7.51091C7.73091 7.3596 7.93993 7.27469 8.1198 7.14404C8.29967 7.01339 8.44516 6.84092 8.54363 6.6416L10.8522 1.96289L10.8527 1.9624C10.9585 1.74857 11.1222 1.56823 11.3249 1.44238L11.4025 1.39795C11.5863 1.30096 11.7915 1.25 12.0002 1.25L12.089 1.25293ZM17.9528 20.3462L17.9567 20.3477C17.9547 20.3466 17.9524 20.3457 17.9504 20.3447L17.9528 20.3462ZM9.88836 7.30566V7.30615C9.68223 7.72334 9.37764 8.08444 9.00115 8.35791C8.62477 8.63124 8.18752 8.80847 7.72722 8.87549L7.72771 8.87598L3.00066 9.56641L6.41912 12.8945L6.54021 13.02C6.81359 13.3206 7.02058 13.6763 7.14666 14.064C7.2907 14.507 7.32499 14.9784 7.24627 15.4375L6.44011 20.1392L10.6637 17.918H10.6642C11.0761 17.7017 11.5345 17.5889 11.9997 17.5889C12.4648 17.5889 12.9229 17.7017 13.3346 17.918H13.3351L17.5607 20.1401L16.7536 15.4365V15.436C16.6752 14.9772 16.7097 14.5061 16.8537 14.0635C16.9977 13.6208 17.2473 13.2194 17.5807 12.8945L20.9968 9.56738L16.2717 8.87598H16.2712C15.8113 8.80847 15.3746 8.6303 14.9987 8.35693C14.6228 8.08351 14.3184 7.72292 14.1125 7.30615V7.30566L11.9997 3.02686L9.88836 7.30566ZM21.4386 9.63232L21.4372 9.63184L21.4347 9.63135L21.4386 9.63232ZM2.53044 9.4126V9.41357L2.53191 9.4126H2.53044ZM2.53044 9.41357V9.4126H2.53191L2.53044 9.41357Z" fill="#5F6368"/>
</svg>
