<svg width="24" height="24" viewBox="0 0 24 24" fill="none" xmlns="http://www.w3.org/2000/svg">
<path d="M11.25 22V20C11.25 19.5858 11.5858 19.25 12 19.25C12.4142 19.25 12.75 19.5858 12.75 20V22C12.75 22.4142 12.4142 22.75 12 22.75C11.5858 22.75 11.25 22.4142 11.25 22ZM5.80957 17.1299C6.10246 16.837 6.57722 16.837 6.87012 17.1299C7.16301 17.4228 7.16301 17.8975 6.87012 18.1904L5.46045 19.6001C5.16756 19.893 4.6928 19.893 4.3999 19.6001C4.10701 19.3072 4.10701 18.8324 4.3999 18.5396L5.80957 17.1299ZM17.1299 17.1299C17.4228 16.837 17.8975 16.837 18.1904 17.1299L19.6001 18.5396C19.893 18.8324 19.893 19.3072 19.6001 19.6001C19.3072 19.893 18.8324 19.893 18.5396 19.6001L17.1299 18.1904C16.837 17.8975 16.837 17.4228 17.1299 17.1299ZM15.25 12C15.25 10.2051 13.7949 8.75 12 8.75C10.2051 8.75 8.75 10.2051 8.75 12C8.75 13.7949 10.2051 15.25 12 15.25C13.7949 15.25 15.25 13.7949 15.25 12ZM4 11.25C4.41421 11.25 4.75 11.5858 4.75 12C4.75 12.4142 4.41421 12.75 4 12.75H2C1.58579 12.75 1.25 12.4142 1.25 12C1.25 11.5858 1.58579 11.25 2 11.25H4ZM22 11.25C22.4142 11.25 22.75 11.5858 22.75 12C22.75 12.4142 22.4142 12.75 22 12.75H20C19.5858 12.75 19.25 12.4142 19.25 12C19.25 11.5858 19.5858 11.25 20 11.25H22ZM4.3999 4.3999C4.6928 4.10701 5.16756 4.10701 5.46045 4.3999L6.87012 5.80957C7.16301 6.10246 7.16301 6.57722 6.87012 6.87012C6.57722 7.16301 6.10246 7.16301 5.80957 6.87012L4.3999 5.46045C4.10701 5.16756 4.10701 4.6928 4.3999 4.3999ZM18.5396 4.3999C18.8324 4.10701 19.3072 4.10701 19.6001 4.3999C19.893 4.6928 19.893 5.16756 19.6001 5.46045L18.1904 6.87012C17.8975 7.16301 17.4228 7.16301 17.1299 6.87012C16.837 6.57722 16.837 6.10246 17.1299 5.80957L18.5396 4.3999ZM11.25 4V2C11.25 1.58579 11.5858 1.25 12 1.25C12.4142 1.25 12.75 1.58579 12.75 2V4C12.75 4.41421 12.4142 4.75 12 4.75C11.5858 4.75 11.25 4.41421 11.25 4ZM16.75 12C16.75 14.6234 14.6234 16.75 12 16.75C9.37665 16.75 7.25 14.6234 7.25 12C7.25 9.37665 9.37665 7.25 12 7.25C14.6234 7.25 16.75 9.37665 16.75 12Z" fill="#5F6368"/>
</svg>
