<svg width="24" height="24" viewBox="0 0 24 24" fill="none" xmlns="http://www.w3.org/2000/svg">
<path d="M11.9899 2.23633C12.4763 2.23633 12.9543 2.36544 13.3746 2.61035C13.7941 2.85477 14.1412 3.20588 14.381 3.62793L22.3815 17.6279H22.381C22.6212 18.0451 22.748 18.518 22.7482 18.9995C22.7483 19.482 22.6215 19.9561 22.3805 20.374C22.1395 20.792 21.7923 21.1393 21.3746 21.3809C20.957 21.6223 20.483 21.7495 20.0006 21.75H4.00013V21.7495C3.51762 21.7527 3.04273 21.6296 2.62318 21.3911C2.20167 21.1515 1.85087 20.8045 1.60657 20.3857C1.36235 19.967 1.23314 19.4911 1.23206 19.0063C1.231 18.5225 1.3578 18.0471 1.59925 17.6279L9.59876 3.62793C9.83856 3.20578 10.1861 2.8548 10.6056 2.61035C11.0259 2.36547 11.5035 2.23636 11.9899 2.23633ZM11.9899 3.73633C11.7689 3.73636 11.5519 3.79503 11.361 3.90625C11.1699 4.01757 11.0115 4.17775 10.9025 4.37012L10.901 4.37256L2.90101 18.3726L2.89954 18.3755C2.78944 18.5663 2.7316 18.7827 2.73206 19.0029C2.73255 19.2233 2.79143 19.44 2.90247 19.6304C3.0135 19.8206 3.17288 19.9781 3.36439 20.0869C3.55597 20.1958 3.77293 20.2525 3.99329 20.2505L4.00013 20.25H19.9992C20.2184 20.2498 20.4339 20.1922 20.6237 20.0825C20.8135 19.9727 20.9711 19.8145 21.0807 19.6245C21.1902 19.4346 21.2482 19.2193 21.2482 19C21.2481 18.7807 21.1904 18.5649 21.0807 18.375L21.0787 18.3726L13.0787 4.37256L13.0778 4.37012C12.9687 4.17774 12.8103 4.01757 12.6193 3.90625C12.4282 3.79497 12.2109 3.73633 11.9899 3.73633ZM12.0099 16.25C12.424 16.25 12.7598 16.5859 12.7599 17C12.7599 17.4142 12.4241 17.75 12.0099 17.75H12.0001C11.5859 17.75 11.2501 17.4142 11.2501 17C11.2503 16.5859 11.586 16.25 12.0001 16.25H12.0099ZM11.2501 13V9C11.2503 8.58589 11.586 8.25 12.0001 8.25C12.4142 8.25004 12.75 8.58591 12.7501 9V13C12.7501 13.4142 12.4143 13.75 12.0001 13.75C11.5859 13.75 11.2501 13.4142 11.2501 13Z" fill="#5F6368"/>
</svg>
