<svg width="24" height="24" viewBox="0 0 24 24" fill="none" xmlns="http://www.w3.org/2000/svg">
<path d="M19.25 14.4999C19.25 13.8762 19.1269 13.2584 18.8882 12.6821C18.6495 12.1059 18.2999 11.5821 17.8589 11.1411C17.4179 10.7 16.8941 10.3505 16.3179 10.1118C15.7416 9.87305 15.1238 9.74994 14.5 9.74994H5.81055L9.53028 13.4697C9.82317 13.7626 9.82317 14.2373 9.53028 14.5302C9.23738 14.8231 8.76262 14.8231 8.46973 14.5302L3.46973 9.53022C3.17684 9.23732 3.17684 8.76256 3.46973 8.46967L8.46973 3.46967C8.76262 3.17678 9.23738 3.17678 9.53028 3.46967C9.82317 3.76256 9.82317 4.23732 9.53028 4.53022L5.81055 8.24994H14.5C15.3207 8.24994 16.1334 8.41149 16.8916 8.72553C17.6499 9.03962 18.3391 9.50014 18.9194 10.0805C19.4998 10.6609 19.9603 11.3501 20.2744 12.1083C20.5885 12.8666 20.75 13.6793 20.75 14.4999L20.7481 14.6538C20.7291 15.422 20.5688 16.1807 20.2744 16.8915C19.9603 17.6498 19.4998 18.339 18.9194 18.9194C18.3391 19.4997 17.6499 19.9603 16.8916 20.2744C16.1334 20.5884 15.3207 20.7499 14.5 20.7499H11C10.5858 20.7499 10.25 20.4142 10.25 19.9999C10.25 19.5857 10.5858 19.2499 11 19.2499H14.5C15.1238 19.2499 15.7416 19.1268 16.3179 18.8881C16.8941 18.6494 17.4179 18.2999 17.8589 17.8588C18.2999 17.4178 18.6495 16.894 18.8882 16.3178C19.0971 15.8135 19.2174 15.2774 19.2441 14.7333L19.25 14.4999Z" fill="#5F6368"/>
</svg>
