<svg width="24" height="24" viewBox="0 0 24 24" fill="none" xmlns="http://www.w3.org/2000/svg">
<path d="M20.25 18C20.25 17.0647 19.6793 16.2629 18.8672 15.9233C18.865 15.9225 18.8625 15.9218 18.8604 15.9209C18.8593 15.9205 18.8584 15.9199 18.8574 15.9194C18.5931 15.8104 18.3036 15.75 18 15.75C17.6962 15.75 17.4065 15.8103 17.1421 15.9194C17.1412 15.9198 17.1405 15.9205 17.1396 15.9209C17.1373 15.9219 17.1347 15.9224 17.1323 15.9233C16.3204 16.263 15.75 17.0649 15.75 18C15.75 19.2426 16.7574 20.25 18 20.25C19.2426 20.25 20.25 19.2426 20.25 18ZM14.25 8C14.25 5.65279 12.3472 3.75 10 3.75C7.65279 3.75 5.75 5.65279 5.75 8C5.75 10.3472 7.65279 12.25 10 12.25C12.3472 12.25 14.25 10.3472 14.25 8ZM21.75 18C21.75 18.2438 21.7256 18.482 21.6812 18.7129L21.9834 18.8384C22.3659 18.9971 22.5472 19.4358 22.3887 19.8184C22.23 20.2009 21.7913 20.3822 21.4087 20.2236L21.1074 20.0986C20.8385 20.496 20.4956 20.8391 20.0981 21.1079L20.2231 21.4097C20.3813 21.7924 20.1991 22.2309 19.8164 22.3892C19.4336 22.5473 18.9951 22.3652 18.8369 21.9824L18.7124 21.6812C18.4817 21.7255 18.2437 21.75 18 21.75C17.756 21.75 17.5176 21.7257 17.2866 21.6812L17.1616 21.9834C17.0029 22.3659 16.5642 22.5472 16.1816 22.3887C15.7991 22.23 15.6178 21.7913 15.7764 21.4087L15.9009 21.1074C15.5036 20.8386 15.1604 20.4959 14.8916 20.0986L14.5918 20.2231C14.2091 20.3815 13.7702 20.1996 13.6118 19.8169C13.4534 19.4342 13.6354 18.9953 14.0181 18.8369L14.3184 18.7124C14.274 18.4817 14.25 18.2436 14.25 18C14.25 17.7559 14.2738 17.5173 14.3184 17.2861L14.0176 17.1616C13.635 17.0029 13.4536 16.5642 13.6123 16.1816C13.771 15.7991 14.2097 15.6177 14.5923 15.7764L14.8921 15.9004C15.1607 15.5035 15.5035 15.1607 15.9004 14.8921L15.7764 14.5923C15.6177 14.2097 15.7991 13.771 16.1816 13.6123C16.5642 13.4536 17.0029 13.635 17.1616 14.0176L17.2861 14.3184C17.5173 14.2738 17.7559 14.25 18 14.25C18.244 14.25 18.4824 14.2739 18.7134 14.3184L18.8384 14.0176C18.9971 13.635 19.4358 13.4536 19.8184 13.6123C20.2009 13.771 20.3823 14.2097 20.2236 14.5923L20.0991 14.8921C20.4962 15.1608 20.8387 15.5038 21.1074 15.9009L21.4087 15.7764C21.7913 15.6178 22.23 15.7991 22.3887 16.1816C22.5472 16.5642 22.3659 17.0029 21.9834 17.1616L21.6812 17.2866C21.7257 17.5176 21.75 17.756 21.75 18ZM15.75 8C15.75 10.0723 14.653 11.8875 13.0088 12.8994C13.1677 13.0898 13.2295 13.3546 13.1484 13.6084C13.0224 14.0028 12.6005 14.2201 12.2061 14.0942C11.1192 13.7471 9.96556 13.6616 8.83936 13.8442C7.71308 14.0269 6.64556 14.4731 5.72412 15.146C4.80274 15.8189 4.05292 16.6996 3.53613 17.7168C3.01934 18.734 2.75012 19.859 2.75 21C2.74996 21.4142 2.41418 21.75 2 21.75C1.58581 21.75 1.25 21.4142 1.25 21C1.25013 19.6229 1.57549 18.2653 2.19922 17.0376C2.82292 15.8099 3.72735 14.7467 4.83936 13.9346C5.46862 13.475 6.15446 13.1033 6.87744 12.8271C5.2967 11.8025 4.25 10.0241 4.25 8C4.25 4.82436 6.82436 2.25 10 2.25C13.1756 2.25 15.75 4.82436 15.75 8Z" fill="#5F6368"/>
</svg>
