<svg width="24" height="24" viewBox="0 0 24 24" fill="none" xmlns="http://www.w3.org/2000/svg">
<path d="M18.25 22V19.75H16C15.5858 19.75 15.25 19.4142 15.25 19C15.25 18.5858 15.5858 18.25 16 18.25H18.25V16C18.25 15.5858 18.5858 15.25 19 15.25C19.4142 15.25 19.75 15.5858 19.75 16V18.25H22C22.4142 18.25 22.75 18.5858 22.75 19C22.75 19.4142 22.4142 19.75 22 19.75H19.75V22C19.75 22.4142 19.4142 22.75 19 22.75C18.5858 22.75 18.25 22.4142 18.25 22ZM14.25 8C14.25 5.65279 12.3472 3.75 10 3.75C7.65279 3.75 5.75 5.65279 5.75 8C5.75 10.3472 7.65279 12.25 10 12.25C12.3472 12.25 14.25 10.3472 14.25 8ZM15.75 8C15.75 10.0233 14.7038 11.8009 13.124 12.8257C14.0966 13.1974 14.9997 13.7421 15.7881 14.4375C16.0987 14.7115 16.1285 15.1855 15.8545 15.4961C15.5805 15.8067 15.1065 15.8365 14.7959 15.5625C13.7495 14.6395 12.4589 14.0378 11.0791 13.8301C9.69933 13.6224 8.28884 13.8175 7.01709 14.3916C5.74536 14.9657 4.66608 15.8947 3.90918 17.0669C3.15236 18.239 2.74992 19.6048 2.75 21C2.75 21.4142 2.4142 21.75 2 21.75C1.58581 21.75 1.25002 21.4142 1.25 21C1.24992 19.316 1.73591 17.6676 2.64941 16.2529C3.5629 14.8383 4.86511 13.7172 6.3999 13.0244C6.55711 12.9535 6.71646 12.888 6.87695 12.8267C5.29653 11.802 4.25 10.0238 4.25 8C4.25 4.82436 6.82436 2.25 10 2.25C13.1756 2.25 15.75 4.82436 15.75 8Z" fill="#5F6368"/>
</svg>
