<svg width="24" height="24" viewBox="0 0 24 24" fill="none" xmlns="http://www.w3.org/2000/svg">
<path d="M15.25 21V19C15.25 18.138 14.9078 17.3112 14.2983 16.7017C13.7269 16.1303 12.9644 15.7937 12.1611 15.7539L12 15.75H6C5.13805 15.75 4.31115 16.0922 3.70166 16.7017C3.09217 17.3112 2.75 18.138 2.75 19V21C2.75 21.4142 2.41421 21.75 2 21.75C1.58579 21.75 1.25 21.4142 1.25 21V19C1.25 17.7402 1.75032 16.5319 2.64111 15.6411C3.53191 14.7503 4.74022 14.25 6 14.25H12C13.2598 14.25 14.4681 14.7503 15.3589 15.6411C16.2497 16.5319 16.75 17.7402 16.75 19V21C16.75 21.4142 16.4142 21.75 16 21.75C15.5858 21.75 15.25 21.4142 15.25 21ZM21.25 21V19.0005C21.2494 18.2804 21.01 17.5808 20.5688 17.0117C20.1277 16.4426 19.5097 16.036 18.8125 15.856C18.4115 15.7524 18.1704 15.3434 18.2739 14.9424C18.3775 14.5414 18.7865 14.3003 19.1875 14.4038C20.2065 14.6669 21.1091 15.261 21.7539 16.0928C22.3987 16.9246 22.7492 17.9471 22.75 18.9995V21C22.75 21.4142 22.4142 21.75 22 21.75C21.5858 21.75 21.25 21.4142 21.25 21ZM12.25 7C12.25 5.20507 10.7949 3.75 9 3.75C7.20507 3.75 5.75 5.20507 5.75 7C5.75 8.79493 7.20507 10.25 9 10.25C10.7949 10.25 12.25 8.79493 12.25 7ZM18.2461 7C18.2461 6.28006 18.007 5.58062 17.5664 5.01123C17.1258 4.44189 16.5089 4.03471 15.812 3.854C15.4111 3.75007 15.1701 3.34085 15.2739 2.93994C15.3779 2.53906 15.7871 2.29807 16.188 2.40186C17.2066 2.66592 18.109 3.26106 18.7529 4.09326C19.3968 4.92543 19.7461 5.94781 19.7461 7C19.7461 8.05219 19.3968 9.07457 18.7529 9.90674C18.109 10.7389 17.2066 11.3341 16.188 11.5981C15.7871 11.7019 15.3779 11.4609 15.2739 11.0601C15.1701 10.6592 15.4111 10.2499 15.812 10.146C16.5089 9.96529 17.1258 9.55811 17.5664 8.98877C18.007 8.41938 18.2461 7.71994 18.2461 7ZM13.75 7C13.75 9.62335 11.6234 11.75 9 11.75C6.37665 11.75 4.25 9.62335 4.25 7C4.25 4.37665 6.37665 2.25 9 2.25C11.6234 2.25 13.75 4.37665 13.75 7Z" fill="#5F6368"/>
</svg>
